<svg width="280" height="71" viewBox="0 0 280 71" fill="none" xmlns="http://www.w3.org/2000/svg">
<g clip-path="url(#clip0_194_2070)">
<path d="M13.8549 0.995973C13.8123 3.81537 13.7914 5.22562 13.7511 8.04612C19.51 7.8316 22.4692 7.73036 28.4534 7.53882C28.5621 4.92464 28.6174 3.61782 28.73 1.00473C34.6827 0.979555 37.7137 0.968063 43.7829 0.945626C42.8438 12.73 42.4126 18.6435 41.5712 30.4366C24.4496 32.5703 15.8534 33.8558 0 36.8624V1.06493C5.35202 1.03592 8.14342 1.02224 13.8549 0.995973ZM13.7025 56.0148C13.7395 53.1139 13.7582 51.6631 13.7952 48.7611C9.82842 49.7034 3.99442 51.2883 0.0971689 52.305C0.107107 47.8751 0.112628 45.6598 0.123117 41.2294C20.2382 37.1836 44.4316 33.1104 64.8338 30.9144C64.3788 34.3237 64.1536 36.0273 63.7064 39.4273C59.6115 40.0035 57.5604 40.31 53.4628 40.9607C53.2094 43.3937 53.0835 44.6091 52.8317 47.0367C56.8714 46.2875 58.8949 45.9346 62.9395 45.2708C62.4951 48.6615 62.2742 50.3536 61.832 53.7279C41.9069 58.2487 19.4321 64.5458 0.0557617 71C0.0656995 66.5717 0.0701162 64.357 0.0800539 59.9276C3.95632 58.7576 9.77431 57.0994 13.7025 56.0148ZM28.0614 17.1654C22.1904 17.5999 19.2836 17.8303 13.6064 18.3179C13.5744 20.6793 13.5584 21.8597 13.5275 24.221C19.1588 23.5769 22.0358 23.2721 27.8433 22.698C27.9294 20.485 27.9731 19.3785 28.0614 17.1654ZM39.6576 43.3264C34.6959 44.2403 32.222 44.7252 27.31 45.7496C27.2084 48.471 27.1582 49.8309 27.0571 52.5497C31.9029 51.3709 34.3404 50.8127 39.2286 49.7609C39.3998 47.1894 39.4854 45.9017 39.6576 43.3264ZM68.5847 0.803343C66.9582 11.832 66.2063 17.381 64.7366 28.4233C59.077 28.9848 56.2293 29.2896 50.5477 29.9485C51.6552 18.3124 52.2222 12.4722 53.4529 0.846575C59.5353 0.827969 62.5818 0.819213 68.5847 0.802795V0.803343Z" fill="white"/>
<path d="M115.991 14.8763C115.72 16.5426 115.02 17.9666 113.864 19.1601C112.705 20.3537 111.22 21.3568 109.39 22.1782C107.56 22.9996 105.462 23.636 103.081 24.0902C100.699 24.545 98.1592 24.8575 95.4947 25.0222C92.8839 25.1836 90.3906 25.182 88.0221 25.0036C85.6531 24.8257 83.5993 24.4104 81.8729 23.7389C80.1454 23.0685 78.8148 22.1377 77.8906 20.9408C76.9664 19.7446 76.6462 18.2194 76.9465 16.3834C77.3573 13.8694 77.5649 12.6123 77.9861 10.0994C78.2936 8.26503 79.1378 6.69389 80.5224 5.40568C81.9066 4.11911 83.644 3.06785 85.7138 2.25465C87.7825 1.44199 90.1118 0.86574 92.663 0.517146C95.2132 0.168551 97.8075 0.000547244 100.422 0.000547244C103.089 0.000547244 105.501 0.168551 107.661 0.498539C109.821 0.828528 111.597 1.36647 113.052 2.10689C114.507 2.84895 115.57 3.79514 116.281 4.94763C116.99 6.10068 117.209 7.506 116.932 9.17181C116.551 11.4533 116.363 12.5948 115.992 14.8768L115.991 14.8763ZM135.369 44.3186C114.31 44.561 93.2748 46.4337 72.5005 49.8583C73.6378 42.5772 74.2048 38.9047 75.3703 31.5464C81.2048 30.962 84.1056 30.7009 89.8231 30.2407C89.0253 34.6449 88.6333 36.8427 87.8521 41.2162C107.407 39.0453 116.84 38.4455 135.627 38.26C135.523 40.6914 135.472 41.9041 135.369 44.3186ZM104.277 9.8493C104.526 8.58681 104.181 7.67838 103.219 7.11746C102.256 6.55817 100.893 6.28784 99.1171 6.31574C97.3382 6.34365 95.8139 6.66051 94.5656 7.27178C93.3151 7.88415 92.5598 8.84511 92.3086 10.1454C91.9139 12.1888 91.719 13.211 91.3336 15.2555C91.0879 16.558 91.4794 17.4795 92.4941 18.0169C93.5078 18.5538 94.9101 18.7759 96.6878 18.6939C98.4628 18.6118 99.9529 18.2588 101.154 17.6355C102.355 17.0133 103.066 16.0747 103.31 14.8106C103.692 12.8258 103.886 11.8331 104.277 9.8493ZM124.612 0H135.51C135.222 4.3391 135.084 6.5133 134.816 10.8573C137.067 10.8475 138.184 10.8458 140.424 10.8475C140.37 13.315 140.344 14.5485 140.293 17.0127C137.956 17.0111 136.789 17.0144 134.441 17.0302C134.157 21.7738 134.021 24.1439 133.75 28.8606C128.571 28.9208 125.977 28.9831 120.705 29.1708C122.188 17.5518 122.942 11.6585 124.612 0Z" fill="white"/>
<path d="M157.545 25.3412C157.959 30.2779 158.164 32.7389 158.574 37.6274C165.757 37.9224 169.366 38.1413 176.702 38.7197C177.063 41.2228 177.244 42.4705 177.603 44.9577C164.515 43.7752 158.017 43.4397 145.01 43.2821C144.901 33.655 144.845 28.756 144.75 18.9418C150.552 18.9834 153.45 19.0337 159.453 19.194C158.955 14.0319 158.704 11.4418 158.194 6.26102C152.591 6.20684 149.942 6.18988 144.636 6.17456C144.616 3.7043 144.607 2.46917 144.589 0H169.555C171.135 10.4343 171.882 15.661 173.356 26.0034C166.856 25.6586 163.727 25.5262 157.545 25.3412H157.545ZM169.26 27.6862C172.919 27.87 174.772 27.9757 178.554 28.2148C176.873 17.0045 176.019 11.3307 174.192 0H186.263C188.834 15.9084 191.202 31.8529 193.54 47.7958C188.632 47.156 186.173 46.8726 181.265 46.3773C180.693 42.5477 180.407 40.6219 179.831 36.7562C176.005 36.4459 174.113 36.3091 170.355 36.071C169.92 32.7285 169.701 31.0506 169.26 27.6862ZM190.115 0H203.027C205.324 16.7156 207.452 33.4574 209.55 50.1982C204.655 49.3663 202.203 48.9871 197.296 48.3025C194.986 32.1911 192.648 16.0786 190.115 0Z" fill="white"/>
<path d="M212.516 7.12731C212.181 4.27781 212.012 2.85169 211.669 0H254.455C254.557 3.34968 254.607 5.0248 254.707 8.37393C238.099 7.77251 229.317 7.52351 212.516 7.12731ZM213.131 12.3907C229.782 13.0802 238.442 13.5147 254.888 14.5611C254.985 17.9091 255.033 19.5831 255.128 22.9295C244.78 21.8766 239.47 21.4076 228.918 20.5829C229.742 30.7097 230.14 35.7651 230.932 45.8257C241.288 47.7438 246.458 48.8383 256.651 51.297C256.737 54.6456 256.78 56.3191 256.866 59.6633C241.252 55.206 233.314 53.3563 217.399 50.4149C215.731 35.3317 214.905 27.6917 213.131 12.3907ZM251.896 29.5293C257.569 30.2686 260.386 30.661 265.935 31.4912C265.781 18.9013 265.702 12.6008 265.528 0H280C280 22.8825 280 45.7649 280 68.6474C274.561 66.6916 271.823 65.7629 266.321 64.0035C266.228 56.0449 266.182 52.0621 266.087 44.092C260.619 42.9253 257.854 42.3737 252.291 41.3339C252.134 36.6156 252.055 34.2542 251.896 29.5293Z" fill="white"/>
</g>
<defs>
<clipPath id="clip0_194_2070">
<rect width="280" height="71" fill="white"/>
</clipPath>
</defs>
</svg>
