<svg width="32" height="33" viewBox="0 0 32 33" fill="none" xmlns="http://www.w3.org/2000/svg">
<path d="M17.2336 4.01025C18.5835 4.01385 19.2687 4.02105 19.8603 4.03785L20.0931 4.04625C20.3619 4.05585 20.627 4.06785 20.9474 4.08225C22.2242 4.14225 23.0953 4.34384 23.8597 4.64022C24.6516 4.94501 25.3188 5.35778 25.986 6.02375C26.5961 6.6236 27.0683 7.34919 27.3695 8.15004C27.6659 8.9144 27.8675 9.78556 27.9275 11.0635C27.9419 11.3827 27.9539 11.6479 27.9635 11.9178L27.9707 12.1506C27.9887 12.741 27.9959 13.4262 27.9983 14.7761L27.9995 15.6713V17.2432C28.0024 18.1184 27.9932 18.9937 27.9719 19.8686L27.9647 20.1014C27.9551 20.3714 27.9431 20.6366 27.9287 20.9558C27.8687 22.2337 27.6647 23.1037 27.3695 23.8692C27.0691 24.6705 26.5969 25.3963 25.986 25.9955C25.386 26.6055 24.6604 27.0776 23.8597 27.3791C23.0953 27.6754 22.2242 27.877 20.9474 27.937C20.6627 27.9504 20.3779 27.9624 20.0931 27.973L19.8603 27.9802C19.2687 27.997 18.5835 28.0054 17.2336 28.0078L16.3385 28.009H14.7677C13.8921 28.012 13.0165 28.0028 12.1411 27.9814L11.9083 27.9742C11.6234 27.9634 11.3386 27.951 11.0539 27.937C9.7772 27.877 8.90604 27.6754 8.14048 27.3791C7.33972 27.0783 6.61442 26.6061 6.01539 25.9955C5.40467 25.3959 4.93211 24.6703 4.63066 23.8692C4.33428 23.1049 4.13269 22.2337 4.07269 20.9558C4.05932 20.6711 4.04732 20.3863 4.03669 20.1014L4.03069 19.8686C4.00858 18.9937 3.99858 18.1184 4.00069 17.2432V14.7761C3.99734 13.9009 4.00614 13.0256 4.02709 12.1506L4.03549 11.9178C4.04509 11.6479 4.05709 11.3827 4.07149 11.0635C4.13149 9.78556 4.33308 8.9156 4.62946 8.15004C4.93078 7.34837 5.40428 6.62255 6.01659 6.02375C6.61547 5.41355 7.34029 4.94139 8.14048 4.64022C8.90604 4.34384 9.776 4.14225 11.0539 4.08225C11.3731 4.06785 11.6395 4.05585 11.9083 4.04625L12.1411 4.03905C13.0161 4.01773 13.8913 4.00853 14.7665 4.01145L17.2336 4.01025ZM16.0001 10.0099C14.4089 10.0099 12.8828 10.6421 11.7577 11.7672C10.6325 12.8924 10.0004 14.4184 10.0004 16.0096C10.0004 17.6009 10.6325 19.1269 11.7577 20.2521C12.8828 21.3772 14.4089 22.0093 16.0001 22.0093C17.5913 22.0093 19.1173 21.3772 20.2425 20.2521C21.3677 19.1269 21.9998 17.6009 21.9998 16.0096C21.9998 14.4184 21.3677 12.8924 20.2425 11.7672C19.1173 10.6421 17.5913 10.0099 16.0001 10.0099ZM16.0001 12.4098C16.4728 12.4097 16.9409 12.5028 17.3777 12.6836C17.8145 12.8644 18.2114 13.1295 18.5457 13.4638C18.88 13.798 19.1453 14.1948 19.3262 14.6315C19.5072 15.0682 19.6004 15.5363 19.6005 16.009C19.6006 16.4818 19.5075 16.9499 19.3267 17.3867C19.1459 17.8235 18.8808 18.2203 18.5466 18.5547C18.2123 18.889 17.8155 19.1542 17.3788 19.3352C16.9421 19.5162 16.474 19.6094 16.0013 19.6095C15.0465 19.6095 14.1309 19.2302 13.4558 18.5551C12.7807 17.88 12.4015 16.9644 12.4015 16.0096C12.4015 15.0549 12.7807 14.1393 13.4558 13.4642C14.1309 12.7891 15.0465 12.4098 16.0013 12.4098M22.301 8.21004C21.9032 8.21004 21.5216 8.36807 21.2403 8.64936C20.9591 8.93065 20.801 9.31216 20.801 9.70996C20.801 10.1078 20.9591 10.4893 21.2403 10.7706C21.5216 11.0519 21.9032 11.2099 22.301 11.2099C22.6988 11.2099 23.0803 11.0519 23.3616 10.7706C23.6429 10.4893 23.8009 10.1078 23.8009 9.70996C23.8009 9.31216 23.6429 8.93065 23.3616 8.64936C23.0803 8.36807 22.6988 8.21004 22.301 8.21004Z" fill="#9D9D9D"/>
</svg>
