<svg width="32" height="33" viewBox="0 0 32 33" fill="none" xmlns="http://www.w3.org/2000/svg">
<path d="M13.6 20.0103L19.828 16.4103L13.6 12.8103V20.0103ZM27.472 10.6143C27.628 11.1783 27.736 11.9343 27.808 12.8943C27.892 13.8543 27.928 14.6823 27.928 15.4023L28 16.4103C28 19.0383 27.808 20.9703 27.472 22.2063C27.172 23.2863 26.476 23.9823 25.396 24.2823C24.832 24.4383 23.8 24.5463 22.216 24.6183C20.656 24.7023 19.228 24.7383 17.908 24.7383L16 24.8103C10.972 24.8103 7.84 24.6183 6.604 24.2823C5.524 23.9823 4.828 23.2863 4.528 22.2063C4.372 21.6423 4.264 20.8863 4.192 19.9263C4.108 18.9663 4.072 18.1383 4.072 17.4183L4 16.4103C4 13.7823 4.192 11.8503 4.528 10.6143C4.828 9.53425 5.524 8.83825 6.604 8.53825C7.168 8.38225 8.2 8.27425 9.784 8.20225C11.344 8.11825 12.772 8.08225 14.092 8.08225L16 8.01025C21.028 8.01025 24.16 8.20225 25.396 8.53825C26.476 8.83825 27.172 9.53425 27.472 10.6143Z" fill="#9D9D9D"/>
</svg>
